<?xml version="1.0" standalone="no"?>
<!DOCTYPE svg PUBLIC "-//W3C//DTD SVG 20010904//EN"
 "http://www.w3.org/TR/2001/REC-SVG-20010904/DTD/svg10.dtd">
<svg version="1.0" xmlns="http://www.w3.org/2000/svg"
 width="3004.000000pt" height="3004.000000pt" viewBox="0 0 3004.000000 3004.000000"
 preserveAspectRatio="xMidYMid meet">
<metadata>
Created by potrace 1.14, written by Peter Selinger 2001-2017
</metadata>
<g transform="translate(0.000000,3004.000000) scale(0.100000,-0.100000)"
fill="#000000" stroke="none">
<path d="M13510 19298 c0 -86 -1 -8201 0 -8365 l0 -131 270 1 c149 1 270 -2
270 -6 0 -5 5 -5 10 -2 14 9 1115 9 1129 1 6 -4 11 -3 11 3 0 6 7 8 15 5 18
-7 16 -27 17 239 1 114 3 207 5 207 2 0 78 -36 167 -80 90 -44 167 -80 171
-80 4 0 20 -9 36 -21 16 -11 29 -18 29 -16 0 3 27 -8 60 -24 33 -16 63 -29 66
-29 3 0 24 -9 47 -19 34 -16 266 -98 282 -101 3 0 10 -3 17 -5 23 -8 252 -63
288 -69 19 -3 46 -8 60 -11 14 -3 41 -7 60 -10 19 -3 55 -8 80 -12 25 -4 56
-8 70 -9 14 -1 25 -2 25 -3 0 -5 209 -14 345 -14 142 -1 320 7 395 17 78 10
214 32 255 40 13 3 42 8 63 11 22 4 49 10 61 15 13 4 38 11 57 14 19 3 79 19
134 36 55 17 107 32 115 34 129 34 496 202 638 292 29 19 55 34 58 34 7 0 158
114 183 138 9 10 41 37 70 62 30 25 68 59 86 75 18 17 65 59 105 95 40 36 87
79 105 95 17 17 73 68 125 115 107 98 209 193 284 265 29 28 106 100 172 162
65 61 156 147 200 190 45 43 153 146 240 230 210 201 467 450 1088 1058 93 91
173 165 177 165 5 0 9 7 9 15 0 8 3 15 8 15 4 0 71 62 149 138 291 282 516
497 698 667 71 66 143 134 160 150 33 31 191 173 212 190 7 6 33 29 58 53 25
23 47 42 50 42 2 0 17 12 34 28 16 15 42 37 57 49 16 12 38 30 49 40 108 99
455 325 517 337 7 1 30 10 52 19 21 10 49 19 62 21 13 3 27 7 31 9 5 3 26 8
48 11 22 4 54 10 70 13 42 9 426 10 505 1 82 -10 108 -13 145 -21 17 -4 44 -9
60 -12 35 -5 191 -51 205 -60 6 -3 18 -8 28 -10 30 -5 192 -84 262 -127 67
-41 105 -67 168 -115 39 -29 233 -221 266 -263 39 -48 146 -210 146 -220 0 -5
5 -10 11 -10 5 0 8 -4 5 -9 -4 -5 -2 -11 3 -13 12 -5 95 -179 136 -287 60
-160 70 -222 68 -451 -1 -91 -4 -187 -6 -215 -15 -165 -20 -211 -24 -218 -3
-5 -6 -26 -8 -47 -2 -21 -6 -48 -10 -59 -3 -10 -8 -29 -10 -40 -20 -91 -28
-115 -62 -206 -29 -77 -106 -225 -135 -259 -40 -49 -48 -60 -48 -66 0 -6 -44
-56 -124 -140 -54 -57 -141 -136 -193 -176 -26 -20 -51 -42 -55 -48 -4 -6 -8
-7 -8 -3 0 5 -6 2 -14 -5 -24 -23 -118 -82 -181 -113 -22 -11 -41 -23 -43 -27
-2 -5 -10 -8 -18 -8 -8 0 -26 -7 -39 -16 -14 -9 -25 -12 -25 -8 0 5 -4 4 -8
-2 -6 -9 -120 -55 -172 -69 -101 -28 -171 -46 -200 -50 -20 -3 -47 -8 -60 -10
-50 -10 -178 -18 -280 -18 -161 0 -268 15 -456 62 -45 12 -200 67 -218 79 -6
3 -13 7 -16 8 -41 8 -211 108 -310 181 -66 49 -270 243 -270 258 0 3 -24 38
-53 78 -97 132 -205 327 -268 483 -45 114 -51 133 -64 219 -7 52 -15 58 -50
39 -29 -15 -129 -90 -169 -126 -11 -10 -24 -18 -30 -18 -5 0 -6 -3 -3 -6 3 -4
-6 -16 -21 -28 -42 -33 -200 -186 -664 -646 -427 -423 -429 -425 -410 -445 10
-12 21 -26 23 -31 2 -6 28 -44 57 -85 29 -41 91 -128 138 -194 144 -203 215
-288 379 -450 119 -118 160 -155 225 -205 18 -14 38 -30 44 -35 6 -6 27 -22
46 -35 19 -13 37 -27 40 -30 3 -3 12 -9 21 -15 10 -5 52 -34 94 -62 42 -29 78
-53 81 -53 2 0 33 -18 69 -40 87 -54 263 -142 395 -198 119 -50 401 -145 470
-157 8 -1 22 -5 30 -8 59 -23 307 -60 475 -72 75 -5 403 -5 470 0 136 10 188
15 213 20 15 2 52 7 82 11 30 3 66 8 80 10 14 3 36 7 50 9 62 9 104 18 230 46
153 35 150 34 170 42 8 3 61 19 117 37 57 17 117 37 135 45 18 7 36 14 40 15
11 2 114 47 188 83 82 39 234 128 238 139 2 4 8 8 13 8 6 0 34 16 64 35 l55
35 0 -244 0 -244 540 1 c297 1 540 -1 540 -5 0 -4 7 -5 15 -2 22 9 465 10 465
2 0 -4 7 -5 15 -2 8 3 45 7 82 7 l68 2 0 3204 c0 2127 -3 3205 -10 3207 -21 8
-125 9 -125 1 0 -5 -5 -5 -10 -2 -10 6 -200 10 -225 5 -5 -1 -14 -1 -20 0 -14
2 -118 3 -130 0 -5 -1 -12 -2 -15 0 -16 6 -80 4 -80 -3 0 -5 -5 -5 -10 -2 -10
6 -200 10 -225 5 -5 -1 -14 -1 -20 0 -14 2 -118 3 -130 0 -5 -1 -12 -2 -15 0
-16 6 -80 4 -80 -3 0 -5 -5 -5 -10 -2 -10 6 -200 10 -225 5 -5 -1 -14 -1 -20
0 -14 2 -118 3 -130 0 -5 -1 -12 -2 -15 0 -16 6 -80 4 -80 -3 0 -5 -4 -5 -10
-2 -9 5 -74 9 -122 6 -17 -1 -18 -19 -18 -235 l0 -235 -82 42 c-46 23 -85 44
-88 47 -5 6 -307 159 -315 160 -7 1 -76 30 -114 47 -34 15 -289 101 -320 107
-9 2 -23 6 -31 9 -20 7 -160 40 -185 43 -11 1 -22 3 -25 5 -3 1 -9 3 -15 4 -5
1 -30 5 -55 10 -25 4 -54 9 -65 11 -11 1 -37 5 -57 8 -89 14 -117 17 -183 22
-38 3 -100 7 -138 8 -37 2 -70 6 -73 9 -4 3 -14 3 -23 -2 -9 -5 -25 -5 -35 -1
-11 3 -37 4 -57 0 -21 -4 -43 -4 -50 1 -7 4 -17 5 -22 2 -5 -3 -48 -7 -95 -9
-128 -5 -264 -18 -327 -30 -11 -3 -36 -7 -55 -10 -79 -12 -99 -16 -182 -35
-102 -22 -274 -70 -338 -94 -25 -9 -49 -18 -55 -19 -13 -4 -35 -13 -120 -48
-38 -17 -75 -31 -81 -32 -7 -1 -20 -8 -30 -16 -9 -8 -19 -14 -20 -13 -6 4
-116 -48 -145 -68 -14 -10 -29 -16 -33 -12 -3 3 -6 1 -6 -5 0 -7 -5 -12 -10
-12 -6 0 -29 -12 -53 -27 -80 -51 -182 -118 -187 -123 -3 -3 -32 -28 -65 -55
-53 -45 -84 -72 -160 -140 -40 -36 -186 -169 -220 -200 -121 -113 -274 -256
-309 -290 -24 -22 -116 -110 -206 -195 -90 -85 -199 -190 -242 -232 -44 -43
-81 -78 -82 -78 -5 0 -693 -672 -1060 -1035 -910 -900 -1491 -1459 -1709
-1645 -16 -14 -44 -38 -62 -55 -18 -16 -49 -43 -70 -60 -20 -16 -48 -39 -61
-51 -13 -11 -35 -29 -50 -40 -15 -10 -41 -31 -58 -45 -75 -63 -336 -229 -336
-213 0 3 -7 -2 -16 -10 -8 -9 -20 -14 -25 -11 -5 4 -9 2 -9 -2 0 -7 -126 -52
-165 -59 -5 -1 -28 -5 -50 -10 -76 -16 -575 -7 -645 11 -8 2 -35 7 -60 10 -25
3 -69 10 -97 16 -29 6 -55 10 -58 10 -2 0 -23 6 -45 14 -22 8 -42 14 -45 15
-3 0 -6 0 -7 1 -2 0 -11 2 -21 4 -30 6 -129 48 -206 88 -167 88 -354 242 -501
416 -25 29 -51 59 -57 66 -7 8 -13 17 -13 22 -1 4 -14 24 -30 43 -17 19 -30
40 -30 47 0 7 -4 13 -10 13 -5 0 -12 11 -16 24 -3 14 -12 27 -20 30 -8 3 -14
14 -14 25 0 11 -4 21 -8 23 -14 6 -128 258 -116 258 3 0 0 9 -6 21 -6 11 -13
28 -15 37 -2 9 -8 31 -14 49 -5 17 -7 34 -3 37 3 3 1 6 -4 6 -5 0 -10 12 -11
28 -2 15 -4 34 -6 42 -6 27 -16 84 -23 130 -7 55 -12 312 -6 323 2 5 6 34 8
65 2 31 6 68 9 82 3 14 8 36 10 50 3 14 7 36 10 50 4 14 8 36 11 50 9 44 72
225 98 283 15 31 26 58 26 62 0 3 10 22 23 43 13 20 41 66 62 102 46 78 136
200 147 200 5 0 8 5 8 11 0 28 268 267 365 326 184 111 330 177 490 219 36 9
43 11 53 14 4 1 12 3 17 4 13 2 93 17 120 22 99 20 341 25 468 10 154 -17 378
-80 482 -134 17 -9 33 -15 38 -14 4 1 7 -3 7 -10 0 -6 3 -9 6 -5 6 6 177 -91
182 -105 2 -4 8 -8 14 -8 9 0 52 -31 123 -90 50 -41 199 -192 236 -239 19 -24
40 -49 47 -56 6 -8 12 -16 12 -20 0 -4 6 -13 13 -20 26 -30 37 -44 37 -49 0
-3 16 -30 35 -60 19 -30 35 -60 35 -66 0 -5 5 -10 10 -10 6 0 10 -9 10 -20 0
-11 5 -20 10 -20 6 0 10 -4 10 -10 0 -5 11 -33 24 -62 28 -61 64 -151 76 -188
5 -14 25 -70 45 -125 21 -55 37 -106 38 -113 0 -7 6 -12 13 -10 12 3 139 118
285 258 26 25 98 92 160 150 62 58 136 128 165 155 53 50 236 221 303 283 55
52 276 259 354 333 l69 66 -26 41 c-14 23 -26 44 -26 47 0 3 -16 31 -35 61
-19 30 -35 57 -35 59 0 10 -98 145 -152 210 -9 11 -33 40 -53 65 -167 202
-504 532 -674 660 -18 14 -38 30 -44 36 -24 21 -172 118 -251 163 -111 64
-272 142 -396 191 -30 12 -64 26 -75 30 -37 16 -236 80 -243 78 -4 -1 -14 2
-22 5 -90 39 -510 108 -672 111 -32 1 -58 5 -58 9 0 4 -8 3 -19 -2 -10 -6 -21
-7 -25 -4 -3 3 -43 5 -88 4 -46 -1 -89 -2 -95 -2 -28 2 -41 1 -123 -3 -47 -3
-104 -8 -127 -11 -24 -3 -64 -7 -90 -10 -27 -3 -64 -8 -83 -11 -19 -4 -44 -7
-55 -9 -251 -39 -591 -145 -810 -251 -39 -19 -75 -34 -81 -34 -5 0 -16 -6 -23
-12 -6 -7 -15 -13 -19 -13 -14 -1 -127 -59 -134 -70 -4 -5 -8 -7 -8 -3 0 4
-45 -16 -100 -43 -56 -27 -102 -49 -104 -49 -2 0 -3 585 -2 1300 l1 1300 -862
0 -863 0 0 -62z"/>
<path d="M28309 19353 c-1 -10 -1 -8536 0 -8545 1 -3 22 -5 49 -4 26 1 57 -1
68 -5 12 -4 25 -5 28 -2 9 9 196 10 196 1 0 -4 7 -5 16 -1 23 9 213 10 247 1
15 -3 27 -4 27 0 0 9 454 7 469 -2 6 -4 11 -4 11 1 0 4 137 7 305 6 l305 -2 0
4280 0 4279 -860 0 c-473 0 -860 -3 -861 -7z"/>
<path d="M9367 17333 c-1 0 -54 -4 -117 -7 -167 -10 -214 -14 -315 -27 -49 -7
-101 -14 -115 -15 -14 -1 -25 -3 -25 -4 0 -2 -9 -4 -20 -5 -11 -2 -31 -5 -45
-8 -14 -3 -34 -8 -45 -10 -11 -3 -40 -10 -65 -17 -25 -7 -49 -13 -55 -15 -5
-1 -17 -5 -25 -8 -8 -3 -62 -22 -120 -41 -138 -45 -174 -59 -182 -71 -4 -5 -8
-7 -8 -3 0 16 -315 -139 -435 -214 -16 -10 -38 -21 -47 -24 -10 -4 -18 -10
-18 -15 0 -5 -5 -9 -10 -9 -13 0 -164 -100 -168 -112 -2 -4 -8 -8 -13 -8 -12
0 -216 -162 -299 -236 -83 -74 -248 -241 -310 -313 -30 -36 -63 -73 -72 -83
-10 -10 -18 -22 -18 -27 0 -5 -4 -11 -8 -13 -12 -4 -142 -178 -155 -205 -6
-13 -13 -23 -17 -23 -4 0 -15 -15 -25 -32 -20 -39 -32 -60 -68 -115 -15 -24
-27 -47 -27 -52 0 -5 -4 -11 -8 -13 -7 -2 -155 -292 -158 -308 -1 -7 -22 -60
-34 -85 -5 -11 -19 -49 -30 -85 -12 -36 -25 -72 -28 -80 -3 -8 -6 -17 -7 -20
-1 -3 -5 -12 -8 -20 -11 -26 -65 -252 -72 -303 -3 -27 -8 -58 -10 -69 -5 -26
-15 -111 -20 -166 -2 -24 -6 -46 -9 -49 -3 -3 -1 -14 5 -24 5 -11 6 -19 2 -19
-11 0 -15 -100 -16 -360 0 -237 9 -427 28 -560 14 -102 25 -176 30 -197 6 -28
13 -58 21 -98 17 -85 109 -355 161 -475 25 -58 146 -305 152 -310 3 -3 15 -21
25 -40 58 -107 270 -410 286 -410 5 0 10 -6 12 -14 10 -45 327 -361 477 -476
25 -19 55 -43 66 -53 11 -10 81 -59 155 -108 74 -49 140 -93 145 -97 15 -10
94 -54 140 -76 22 -11 42 -23 45 -27 3 -3 16 -10 30 -14 14 -4 27 -11 30 -14
3 -4 30 -18 60 -30 30 -13 78 -34 105 -46 79 -36 171 -71 295 -111 121 -38
144 -45 147 -45 2 0 32 -9 68 -19 36 -10 65 -17 65 -15 0 3 11 0 26 -5 14 -6
37 -12 52 -15 15 -3 38 -7 52 -10 86 -17 150 -28 180 -31 19 -2 47 -6 62 -9
159 -33 650 -38 898 -10 115 13 281 39 320 50 8 2 29 7 45 10 17 2 41 7 55 10
14 3 35 8 47 11 12 2 33 8 45 13 13 5 25 9 28 9 11 0 99 25 155 44 33 11 67
21 75 22 8 2 32 10 54 19 21 10 41 17 44 17 9 0 133 50 202 82 36 16 69 30 75
31 5 1 16 8 23 15 8 7 17 10 22 7 5 -3 10 -2 12 3 1 4 32 22 68 40 36 18 88
46 115 62 28 17 57 33 65 37 8 4 47 28 87 55 40 26 74 48 77 48 3 0 14 6 23
14 10 8 59 45 109 83 107 80 174 135 263 218 89 84 106 101 191 195 41 46 80
88 85 94 6 6 22 27 35 46 13 19 29 40 35 45 30 26 190 265 187 278 -1 4 3 7 8
7 6 0 10 7 10 15 0 8 3 15 8 15 4 0 13 15 21 33 8 17 17 34 21 37 8 6 140 274
140 284 0 3 9 25 20 49 38 83 114 314 146 442 4 17 8 35 10 40 2 6 12 57 24
115 12 58 23 112 25 120 1 8 6 44 10 80 4 36 9 68 12 73 4 7 11 92 18 222 2
39 4 72 5 75 5 14 2 250 -5 350 -12 189 -13 201 -40 370 -16 93 -17 102 -40
205 -9 39 -18 84 -21 100 -3 17 -9 32 -12 35 -4 3 -8 14 -9 25 -3 25 -8 46
-16 65 -3 8 -23 65 -43 125 -37 114 -55 161 -80 208 -9 15 -13 27 -10 27 7 0
-136 285 -145 288 -5 2 -9 8 -9 13 0 27 -182 295 -274 404 -28 33 -60 71 -71
84 -35 43 -238 244 -300 298 -113 97 -146 124 -229 186 -28 20 -62 45 -75 55
-13 9 -35 24 -49 32 -14 8 -35 23 -46 33 -11 9 -23 17 -27 17 -4 0 -14 6 -21
13 -7 6 -29 21 -48 31 -19 11 -37 22 -40 25 -3 4 -16 12 -30 18 -14 7 -50 26
-80 44 -83 47 -227 119 -239 119 -6 0 -11 5 -11 12 0 6 -3 9 -6 6 -3 -4 -36 7
-72 24 -37 16 -76 33 -87 38 -56 23 -141 55 -150 56 -5 1 -29 9 -53 18 -23 8
-46 16 -50 16 -4 0 -38 10 -77 22 -87 25 -230 54 -312 63 -34 3 -72 8 -85 11
-25 5 -125 13 -258 20 -81 5 -490 11 -493 7z m376 -1573 c23 -5 62 -11 87 -14
25 -3 60 -10 78 -15 18 -5 36 -10 40 -11 48 -6 82 -14 82 -19 0 -4 9 -7 20 -8
58 -5 331 -125 434 -191 23 -15 51 -32 63 -38 12 -7 28 -17 35 -23 7 -6 38
-30 68 -53 82 -64 126 -105 199 -189 85 -98 101 -118 101 -127 0 -4 11 -20 25
-36 58 -67 192 -380 211 -490 2 -17 9 -44 14 -61 9 -31 23 -118 37 -235 15
-125 8 -499 -11 -588 -4 -15 -8 -40 -11 -57 -7 -53 -30 -145 -46 -185 -5 -14
-11 -34 -13 -45 -2 -11 -10 -33 -17 -50 -7 -16 -13 -32 -14 -35 -7 -21 -31
-72 -65 -141 -90 -181 -257 -386 -420 -518 -25 -20 -47 -39 -50 -43 -15 -19
-245 -164 -316 -198 -116 -56 -236 -93 -348 -106 -22 -3 -43 -7 -47 -9 -16
-10 -199 -20 -369 -19 -163 0 -279 7 -345 20 -11 3 -36 7 -55 10 -61 9 -163
36 -230 60 -161 58 -387 215 -534 373 -28 30 -59 61 -68 70 -10 8 -18 21 -18
28 0 7 -4 13 -9 13 -9 0 -32 31 -118 160 -55 83 -142 262 -178 365 -15 44 -30
87 -33 95 -3 8 -6 20 -8 27 -1 6 -7 27 -13 45 -5 18 -12 47 -15 63 -2 17 -5
30 -6 30 -1 0 -3 11 -5 25 -2 14 -6 42 -10 62 -16 94 -22 195 -19 343 1 88 5
169 7 180 2 11 8 47 13 80 4 33 8 62 9 65 1 3 5 25 9 50 5 25 12 53 17 62 5 9
11 29 13 45 2 15 6 35 9 43 3 8 13 40 22 70 10 30 21 59 26 65 5 5 9 15 9 23
0 18 74 171 114 237 93 154 209 290 351 413 46 40 237 172 249 172 3 0 27 13
55 29 27 16 51 27 54 25 2 -2 10 2 17 11 7 8 18 15 25 15 7 0 30 8 51 17 22 9
41 17 44 18 3 1 44 14 92 29 48 15 98 29 110 31 13 3 48 10 78 16 30 6 72 13
93 14 21 1 40 5 43 7 8 9 340 6 387 -2z"/>
<path d="M2617 17274 c-1 -1 -67 -5 -147 -9 -80 -3 -158 -8 -175 -10 -16 -2
-61 -7 -100 -11 -38 -3 -83 -7 -100 -9 -32 -3 -105 -13 -145 -20 -14 -3 -41
-7 -60 -10 -101 -17 -357 -101 -485 -159 -38 -18 -89 -41 -112 -51 -24 -10
-43 -23 -43 -28 0 -6 -3 -7 -7 -4 -3 4 -11 3 -17 -2 -6 -5 -28 -18 -49 -30
-20 -12 -54 -30 -75 -42 -20 -12 -44 -27 -52 -34 -8 -7 -29 -20 -47 -29 -18
-9 -42 -26 -53 -38 -11 -12 -20 -19 -20 -15 0 4 -14 -6 -31 -23 -18 -16 -35
-30 -40 -30 -4 0 -21 -13 -37 -30 -17 -16 -33 -30 -37 -30 -9 0 -192 -185
-245 -248 -42 -51 -90 -115 -127 -172 -9 -14 -24 -37 -33 -51 -10 -14 -31 -50
-46 -80 -15 -30 -33 -57 -38 -61 -6 -4 -7 -8 -2 -8 4 0 1 -11 -8 -25 -9 -14
-13 -25 -9 -25 5 0 2 -4 -5 -9 -7 -4 -15 -14 -16 -22 -2 -8 -13 -36 -24 -62
-12 -27 -22 -50 -22 -52 0 -2 -4 -14 -9 -27 -5 -13 -9 -26 -10 -30 -1 -4 -8
-26 -16 -48 -8 -22 -14 -42 -15 -45 0 -3 0 -6 -1 -7 -6 -21 -10 -59 -14 -136
-2 -51 -7 -96 -10 -101 -3 -5 -1 -21 5 -35 6 -16 6 -27 0 -31 -7 -4 -6 -13 0
-25 7 -13 7 -21 0 -25 -6 -4 -8 -11 -4 -16 3 -5 7 -60 10 -122 4 -116 11 -222
18 -292 7 -63 18 -148 23 -175 2 -14 6 -38 8 -55 2 -16 11 -57 21 -90 9 -33
17 -64 18 -70 1 -5 4 -14 7 -20 6 -9 21 -67 20 -72 0 -2 24 -51 54 -110 89
-176 184 -288 385 -457 154 -129 359 -250 545 -321 39 -14 79 -30 90 -35 36
-15 150 -50 156 -47 3 1 13 -4 22 -12 10 -7 17 -11 17 -8 0 3 15 1 33 -5 58
-18 272 -75 311 -82 12 -3 84 -18 161 -35 77 -18 155 -34 174 -37 18 -3 43 -8
55 -10 11 -3 32 -7 46 -10 45 -9 65 -13 86 -18 12 -2 39 -7 60 -11 22 -3 62
-11 89 -16 28 -5 64 -11 80 -14 17 -3 46 -8 65 -12 19 -3 42 -7 50 -8 14 -3
229 -41 278 -50 12 -2 30 -6 40 -9 9 -3 33 -7 52 -10 47 -8 218 -51 253 -65
15 -6 27 -8 27 -5 0 2 10 -1 23 -8 12 -6 29 -13 37 -14 8 -2 23 -7 35 -13 11
-6 50 -23 87 -40 72 -32 168 -100 206 -147 29 -36 69 -112 79 -150 15 -60 12
-192 -6 -252 -38 -123 -144 -242 -268 -299 -21 -10 -40 -21 -43 -24 -12 -14
-213 -74 -285 -86 -178 -27 -465 -31 -620 -8 -94 14 -114 17 -150 27 -22 5
-49 12 -59 14 -60 11 -266 101 -286 123 -3 4 -23 20 -45 36 -95 71 -204 214
-254 335 -13 30 -31 73 -41 95 -9 22 -30 71 -45 109 -15 38 -32 74 -39 80 -8
8 -266 11 -861 10 l-850 -1 2 -34 c2 -55 16 -185 28 -264 2 -16 6 -46 9 -65 3
-19 15 -69 26 -110 11 -41 23 -86 26 -100 3 -13 23 -67 45 -120 22 -52 43
-103 46 -112 3 -10 9 -18 14 -18 5 0 9 -5 9 -12 0 -26 131 -228 210 -323 73
-89 303 -305 366 -345 13 -8 24 -18 24 -22 0 -5 6 -8 14 -8 8 0 16 -4 18 -8 4
-10 140 -100 152 -100 5 0 12 -5 15 -10 7 -11 110 -68 226 -124 44 -21 88 -43
97 -48 10 -6 25 -10 33 -10 8 0 15 -5 15 -12 0 -6 3 -9 6 -6 3 4 27 -3 52 -14
26 -10 56 -23 67 -28 20 -8 167 -56 260 -84 64 -20 297 -73 355 -81 24 -4 47
-8 50 -10 3 -2 30 -6 60 -10 30 -3 62 -8 70 -10 14 -4 73 -11 195 -21 228 -19
577 -18 770 1 33 4 78 8 100 10 79 7 244 30 310 42 17 3 39 6 50 7 11 1 29 5
40 9 18 5 59 13 120 22 11 2 20 4 20 5 0 1 7 3 15 5 78 17 125 29 184 46 38
12 76 22 85 24 9 2 36 10 61 19 25 9 52 18 61 20 8 2 33 12 55 21 21 9 44 18
49 19 6 1 19 7 30 13 11 6 23 12 27 12 21 4 231 101 238 110 3 3 24 15 47 26
24 11 43 23 43 28 0 4 6 7 13 7 6 0 41 21 77 46 36 25 76 53 90 62 146 96 364
330 476 512 72 117 176 357 190 440 3 14 7 32 10 40 7 20 35 148 40 183 2 15
6 39 8 54 22 121 22 562 0 663 -3 14 -7 43 -10 65 -5 46 -42 199 -55 233 -5
12 -13 32 -17 45 -18 48 -86 184 -109 214 -12 17 -23 34 -23 38 0 24 -216 261
-295 323 -108 85 -294 191 -469 267 -38 17 -341 124 -351 125 -8 0 -24 4 -45
12 -8 3 -42 13 -75 22 -91 26 -99 28 -115 30 -8 1 -25 6 -37 10 -12 4 -32 9
-45 12 -13 3 -41 10 -63 15 -46 11 -71 17 -100 24 -46 11 -202 46 -225 50 -14
2 -59 11 -100 20 -41 9 -84 18 -95 21 -11 2 -31 6 -45 9 -14 3 -34 7 -45 9
-19 4 -299 63 -340 72 -11 2 -33 7 -50 10 -16 2 -48 10 -70 16 -22 5 -49 12
-60 14 -19 4 -42 9 -82 18 -108 25 -308 82 -388 111 -55 19 -104 37 -110 38
-21 6 -161 77 -185 94 -65 48 -148 144 -180 209 -116 238 46 525 351 623 38
12 62 18 118 27 18 3 43 8 55 10 70 14 154 19 341 18 174 -1 320 -8 320 -15 0
0 11 -2 25 -4 99 -13 229 -55 290 -93 59 -37 168 -144 197 -192 9 -17 21 -30
25 -30 4 0 8 -5 8 -10 0 -6 11 -27 23 -48 34 -53 74 -159 81 -212 14 -108 25
-123 103 -135 82 -14 102 -15 321 -20 118 -3 217 -7 222 -10 5 -3 11 -2 14 3
2 4 32 5 65 2 34 -3 61 -2 61 3 0 4 4 6 8 3 5 -3 46 -5 93 -5 46 0 93 -1 104
-1 11 -1 27 -1 35 -1 8 1 31 1 50 0 19 0 49 0 65 0 35 1 67 1 112 -2 17 -1 29
1 26 6 -2 4 6 5 19 2 12 -3 34 -6 48 -6 14 1 39 0 55 0 17 -1 44 -1 60 0 34 1
66 1 112 -2 17 -1 29 1 27 5 -3 4 10 5 28 2 18 -4 35 -7 38 -6 3 0 19 0 35 1
l30 1 -1 108 c-1 113 -6 153 -30 242 -8 30 -17 66 -20 80 -3 14 -9 29 -15 35
-5 5 -9 17 -9 27 0 10 -4 26 -9 36 -18 34 -61 140 -61 150 0 5 -7 15 -15 22
-8 7 -12 16 -9 21 3 5 0 9 -5 9 -6 0 -10 3 -9 8 2 7 -15 42 -55 111 -11 20
-25 45 -31 56 -14 26 -129 198 -136 205 -3 3 -21 25 -40 50 -159 206 -453 459
-670 576 -19 10 -37 21 -40 24 -36 36 -435 189 -522 200 -4 1 -22 6 -40 11
-18 6 -44 12 -58 15 -25 4 -58 12 -95 21 -11 3 -36 6 -55 8 -19 2 -35 4 -35 5
0 2 -4 2 -90 15 -174 24 -363 36 -628 38 -104 1 -189 1 -190 1z"/>
</g>
</svg>
