<svg width="1502" height="434" viewBox="0 0 1502 434" fill="none" xmlns="http://www.w3.org/2000/svg">
<path d="M675.45 427.916H761.628V405.331L781.24 414.841C831.758 439.208 894.459 435.642 942.302 405.034C950.92 399.685 1002.63 351.545 1057.3 297.759C1170.82 186.917 1176.47 182.459 1211.53 183.054C1246.89 183.351 1275.12 201.775 1289.98 234.166C1296.22 248.132 1297.11 253.481 1295.93 273.094C1294.14 300.433 1287.31 315.588 1268.29 332.229C1234.41 361.946 1182.11 360.757 1151.21 329.555C1140.51 318.857 1127.14 293.598 1127.14 283.792C1127.14 279.632 1117.63 287.358 1093.26 311.725L1059.09 345.602L1071.57 363.432C1093.56 394.931 1125.95 416.624 1165.77 426.727C1202.02 435.939 1256.7 428.213 1286.42 409.789L1296.52 403.548V427.916H1382.7V106.98H1296.52V130.456L1279.58 121.541C1227.88 95.3909 1161.31 98.6596 1115.25 129.862C1106.34 135.805 1053.74 185.431 998.466 240.109C882.573 354.517 881.384 355.408 842.159 353.031C816.008 351.545 801.447 345.007 784.806 327.772C737.855 279.334 763.113 197.912 829.381 183.945C871.875 175.03 912.289 198.506 927.147 241.001L932.199 254.967L999.06 192.266L994.009 183.351C985.391 168.196 957.16 139.371 940.817 128.97C894.162 98.9568 832.055 95.688 781.835 120.353L761.628 130.159V0.00165856H675.45V427.916Z" fill="url(#paint0_linear_16_14)"/>
<path d="M1415.38 427.914H1501.56V0H1415.38V427.914Z" fill="url(#paint1_linear_16_14)"/>
<path d="M431.778 105.791C374.426 120.947 325.989 168.493 311.428 224.359C305.781 246.944 305.781 287.952 311.428 310.239C330.743 384.233 397.605 433.859 477.839 433.859C537.865 433.859 593.732 404.737 623.745 357.488C657.622 304.89 657.622 230.005 623.745 177.407C602.35 143.828 562.827 115.895 522.413 105.494C500.423 99.8481 453.471 99.8481 431.778 105.791ZM516.47 188.7C547.375 203.558 562.53 230.302 562.53 268.934C562.53 304.296 545.889 331.635 513.795 348.573C496.263 357.785 456.443 357.785 438.91 348.573C399.982 327.772 382.449 280.226 397.308 235.949C413.354 187.511 469.221 165.521 516.47 188.7Z" fill="url(#paint2_linear_16_14)"/>
<path d="M90.9318 108.465C54.6779 118.271 26.7446 139.964 13.6695 168.492C6.83474 183.053 6.24042 187.807 7.42907 211.877C8.91488 243.079 14.8581 257.938 32.0936 272.796C52.8949 291.22 74.885 298.649 144.124 310.535C179.189 316.479 191.967 323.908 193.453 338.469C195.236 357.19 176.515 369.374 145.907 369.076C116.785 369.076 100.144 360.459 91.8232 341.143L85.88 326.879H0L1.48581 339.954C8.02339 397.901 75.1821 437.721 157.199 432.669C240.405 427.32 286.168 390.175 286.168 327.771C286.168 302.512 281.71 287.951 269.229 273.39C253.183 254.669 228.815 244.565 169.977 232.976C115.893 221.981 103.413 217.226 96.2807 204.448C90.3374 194.048 96.2807 180.378 109.356 174.138C122.431 167.897 155.713 167.897 168.788 174.138C178.298 178.595 188.104 193.156 188.104 203.26C188.104 207.42 193.75 208.014 231.193 208.014H274.281V200.585C274.281 186.321 262.097 160.468 247.536 144.719C220.792 115.597 189.293 104.007 137.586 104.305C120.351 104.305 99.2523 106.385 90.9318 108.465Z" fill="url(#paint3_linear_16_14)"/>
<defs>
<linearGradient id="paint0_linear_16_14" x1="134" y1="-20.141" x2="1444.5" y2="591.359" gradientUnits="userSpaceOnUse">
<stop stop-color="#5E85FC"/>
<stop offset="0.489583" stop-color="#29D1F2"/>
<stop offset="1" stop-color="#7CC2A4"/>
</linearGradient>
<linearGradient id="paint1_linear_16_14" x1="134" y1="-20.141" x2="1444.5" y2="591.359" gradientUnits="userSpaceOnUse">
<stop stop-color="#5E85FC"/>
<stop offset="0.489583" stop-color="#29D1F2"/>
<stop offset="1" stop-color="#7CC2A4"/>
</linearGradient>
<linearGradient id="paint2_linear_16_14" x1="134" y1="-20.141" x2="1444.5" y2="591.359" gradientUnits="userSpaceOnUse">
<stop stop-color="#5E85FC"/>
<stop offset="0.489583" stop-color="#29D1F2"/>
<stop offset="1" stop-color="#7CC2A4"/>
</linearGradient>
<linearGradient id="paint3_linear_16_14" x1="134" y1="-20.141" x2="1444.5" y2="591.359" gradientUnits="userSpaceOnUse">
<stop stop-color="#5E85FC"/>
<stop offset="0.489583" stop-color="#29D1F2"/>
<stop offset="1" stop-color="#7CC2A4"/>
</linearGradient>
</defs>
</svg>
